<svg width="55" height="55" viewBox="0 0 55 55" fill="none" xmlns="http://www.w3.org/2000/svg">
<rect width="55" height="55" rx="5" fill="#00DCB0" fill-opacity="0.1"/>
<path d="M26.29 27.71C26.383 27.8037 26.4936 27.8781 26.6154 27.9289C26.7373 27.9797 26.868 28.0058 27 28.0058C27.132 28.0058 27.2627 27.9797 27.3846 27.9289C27.5064 27.8781 27.617 27.8037 27.71 27.71L31.71 23.71C31.8032 23.6168 31.8772 23.5061 31.9277 23.3842C31.9781 23.2624 32.0041 23.1319 32.0041 23C32.0041 22.8681 31.9781 22.7376 31.9277 22.6158C31.8772 22.4939 31.8032 22.3832 31.71 22.29C31.6168 22.1968 31.5061 22.1228 31.3842 22.0723C31.2624 22.0219 31.1319 21.9959 31 21.9959C30.8681 21.9959 30.7376 22.0219 30.6158 22.0723C30.4939 22.1228 30.3832 22.1968 30.29 22.29L27 25.59L25.71 24.29C25.5217 24.1017 25.2663 23.9959 25 23.9959C24.7337 23.9959 24.4783 24.1017 24.29 24.29C24.1017 24.4783 23.9959 24.7337 23.9959 25C23.9959 25.2663 24.1017 25.5217 24.29 25.71L26.29 27.71ZM37 30H36V20H37C37.2652 20 37.5196 19.8946 37.7071 19.7071C37.8946 19.5196 38 19.2652 38 19C38 18.7348 37.8946 18.4804 37.7071 18.2929C37.5196 18.1054 37.2652 18 37 18H19C18.7348 18 18.4804 18.1054 18.2929 18.2929C18.1054 18.4804 18 18.7348 18 19C18 19.2652 18.1054 19.5196 18.2929 19.7071C18.4804 19.8946 18.7348 20 19 20H20V30H19C18.7348 30 18.4804 30.1054 18.2929 30.2929C18.1054 30.4804 18 30.7348 18 31C18 31.2652 18.1054 31.5196 18.2929 31.7071C18.4804 31.8946 18.7348 32 19 32H27V33.15L22.45 36.15C22.2633 36.2655 22.1199 36.4393 22.0418 36.6445C21.9637 36.8496 21.9552 37.0748 22.0178 37.2852C22.0804 37.4957 22.2104 37.6797 22.3879 37.8089C22.5654 37.938 22.7805 38.0052 23 38C23.1966 38.0022 23.389 37.9428 23.55 37.83L27 35.55V37C27 37.2652 27.1054 37.5196 27.2929 37.7071C27.4804 37.8946 27.7348 38 28 38C28.2652 38 28.5196 37.8946 28.7071 37.7071C28.8946 37.5196 29 37.2652 29 37V35.55L32.45 37.83C32.611 37.9428 32.8034 38.0022 33 38C33.2136 37.9984 33.4212 37.9283 33.5921 37.8002C33.7631 37.672 33.8885 37.4925 33.95 37.2879C34.0115 37.0832 34.0058 36.8643 33.9338 36.6631C33.8619 36.462 33.7273 36.2892 33.55 36.17L29 33.17V32H37C37.2652 32 37.5196 31.8946 37.7071 31.7071C37.8946 31.5196 38 31.2652 38 31C38 30.7348 37.8946 30.4804 37.7071 30.2929C37.5196 30.1054 37.2652 30 37 30ZM34 30H22V20H34V30Z" fill="#00DCB0"/>
</svg>
