<svg width="34" height="34" viewBox="0 0 34 34" fill="none" xmlns="http://www.w3.org/2000/svg">
<rect width="34" height="34" rx="4" fill="#00DCB0" fill-opacity="0.1"/>
<path d="M24.991 7.00201C24.7257 7.00201 24.4714 7.10737 24.2839 7.29491C24.0963 7.48244 23.991 7.7368 23.991 8.00201V8.63901C23.1476 9.68467 22.0816 10.5291 20.8707 11.1109C19.6598 11.6926 18.3344 11.9971 16.991 12.002H10.991C10.1956 12.0028 9.43296 12.3191 8.87052 12.8816C8.30809 13.444 7.99176 14.2066 7.99097 15.002V17.002C7.99176 17.7974 8.30809 18.56 8.87052 19.1225C9.43296 19.6849 10.1956 20.0012 10.991 20.002H11.475L9.07197 25.608C9.00673 25.7602 8.98031 25.9262 8.99505 26.0911C9.0098 26.256 9.06526 26.4147 9.15646 26.5528C9.24765 26.691 9.37173 26.8044 9.51756 26.8828C9.66339 26.9612 9.8264 27.0022 9.99197 27.002H13.992C14.1875 27.0019 14.3787 26.9445 14.5419 26.8367C14.7051 26.729 14.833 26.5758 14.91 26.396L17.634 20.04C18.8646 20.1304 20.0635 20.4721 21.1569 21.044C22.2503 21.6158 23.2148 22.4058 23.991 23.365V24.002C23.991 24.2672 24.0963 24.5216 24.2839 24.7091C24.4714 24.8967 24.7257 25.002 24.991 25.002C25.2562 25.002 25.5105 24.8967 25.6981 24.7091C25.8856 24.5216 25.991 24.2672 25.991 24.002V8.00201C25.991 7.7368 25.8856 7.48244 25.6981 7.29491C25.5105 7.10737 25.2562 7.00201 24.991 7.00201ZM10.991 18.002C10.7258 18.002 10.4714 17.8967 10.2839 17.7091C10.0963 17.5216 9.99097 17.2672 9.99097 17.002V15.002C9.99097 14.7368 10.0963 14.4824 10.2839 14.2949C10.4714 14.1074 10.7258 14.002 10.991 14.002H11.991V18.002H10.991ZM13.332 25.002H11.508L13.65 20.002H15.475L13.332 25.002ZM23.992 20.524C22.0202 18.8996 19.5467 18.0084 16.992 18.002H13.992V14.002H16.992C19.5466 13.9956 22.0202 13.1044 23.992 11.48V20.524Z" fill="#00DCB0"/>
</svg>
