<svg width="34" height="34" viewBox="0 0 34 34" fill="none" xmlns="http://www.w3.org/2000/svg">
<rect width="34" height="34" rx="4" fill="#00DCB0" fill-opacity="0.1"/>
<path d="M24.9999 13.18V8C24.9999 7.73478 24.8946 7.48043 24.707 7.29289C24.5195 7.10536 24.2651 7 23.9999 7C23.7347 7 23.4803 7.10536 23.2928 7.29289C23.1053 7.48043 22.9999 7.73478 22.9999 8V13.18C22.4208 13.3902 21.9204 13.7736 21.5668 14.2782C21.2131 14.7827 21.0234 15.3839 21.0234 16C21.0234 16.6161 21.2131 17.2173 21.5668 17.7218C21.9204 18.2264 22.4208 18.6098 22.9999 18.82V26C22.9999 26.2652 23.1053 26.5196 23.2928 26.7071C23.4803 26.8946 23.7347 27 23.9999 27C24.2651 27 24.5195 26.8946 24.707 26.7071C24.8946 26.5196 24.9999 26.2652 24.9999 26V18.82C25.5791 18.6098 26.0795 18.2264 26.4331 17.7218C26.7867 17.2173 26.9764 16.6161 26.9764 16C26.9764 15.3839 26.7867 14.7827 26.4331 14.2782C26.0795 13.7736 25.5791 13.3902 24.9999 13.18ZM23.9999 17C23.8021 17 23.6088 16.9414 23.4443 16.8315C23.2799 16.7216 23.1517 16.5654 23.076 16.3827C23.0003 16.2 22.9805 15.9989 23.0191 15.8049C23.0577 15.6109 23.153 15.4327 23.2928 15.2929C23.4327 15.153 23.6108 15.0578 23.8048 15.0192C23.9988 14.9806 24.1999 15.0004 24.3826 15.0761C24.5653 15.1518 24.7215 15.28 24.8314 15.4444C24.9413 15.6089 24.9999 15.8022 24.9999 16C24.9999 16.2652 24.8946 16.5196 24.707 16.7071C24.5195 16.8946 24.2651 17 23.9999 17ZM17.9999 19.18V8C17.9999 7.73478 17.8946 7.48043 17.707 7.29289C17.5195 7.10536 17.2651 7 16.9999 7C16.7347 7 16.4803 7.10536 16.2928 7.29289C16.1053 7.48043 15.9999 7.73478 15.9999 8V19.18C15.4208 19.3902 14.9204 19.7736 14.5668 20.2782C14.2131 20.7827 14.0234 21.3839 14.0234 22C14.0234 22.6161 14.2131 23.2173 14.5668 23.7218C14.9204 24.2264 15.4208 24.6098 15.9999 24.82V26C15.9999 26.2652 16.1053 26.5196 16.2928 26.7071C16.4803 26.8946 16.7347 27 16.9999 27C17.2651 27 17.5195 26.8946 17.707 26.7071C17.8946 26.5196 17.9999 26.2652 17.9999 26V24.82C18.5791 24.6098 19.0795 24.2264 19.4331 23.7218C19.7867 23.2173 19.9764 22.6161 19.9764 22C19.9764 21.3839 19.7867 20.7827 19.4331 20.2782C19.0795 19.7736 18.5791 19.3902 17.9999 19.18ZM16.9999 23C16.8021 23 16.6088 22.9414 16.4443 22.8315C16.2799 22.7216 16.1517 22.5654 16.076 22.3827C16.0003 22.2 15.9805 21.9989 16.0191 21.8049C16.0577 21.6109 16.153 21.4327 16.2928 21.2929C16.4327 21.153 16.6108 21.0578 16.8048 21.0192C16.9988 20.9806 17.1999 21.0004 17.3826 21.0761C17.5653 21.1518 17.7215 21.28 17.8314 21.4444C17.9413 21.6089 17.9999 21.8022 17.9999 22C17.9999 22.2652 17.8946 22.5196 17.707 22.7071C17.5195 22.8946 17.2651 23 16.9999 23ZM10.9999 11.18V8C10.9999 7.73478 10.8946 7.48043 10.707 7.29289C10.5195 7.10536 10.2651 7 9.99991 7C9.7347 7 9.48034 7.10536 9.29281 7.29289C9.10527 7.48043 8.99991 7.73478 8.99991 8V11.18C8.42076 11.3902 7.92037 11.7736 7.56676 12.2782C7.21314 12.7827 7.02344 13.3839 7.02344 14C7.02344 14.6161 7.21314 15.2173 7.56676 15.7218C7.92037 16.2264 8.42076 16.6098 8.99991 16.82V26C8.99991 26.2652 9.10527 26.5196 9.29281 26.7071C9.48034 26.8946 9.7347 27 9.99991 27C10.2651 27 10.5195 26.8946 10.707 26.7071C10.8946 26.5196 10.9999 26.2652 10.9999 26V16.82C11.5791 16.6098 12.0795 16.2264 12.4331 15.7218C12.7867 15.2173 12.9764 14.6161 12.9764 14C12.9764 13.3839 12.7867 12.7827 12.4331 12.2782C12.0795 11.7736 11.5791 11.3902 10.9999 11.18ZM9.99991 15C9.80213 15 9.60879 14.9414 9.44434 14.8315C9.27989 14.7216 9.15172 14.5654 9.07603 14.3827C9.00035 14.2 8.98054 13.9989 9.01913 13.8049C9.05771 13.6109 9.15296 13.4327 9.29281 13.2929C9.43266 13.153 9.61084 13.0578 9.80482 13.0192C9.9988 12.9806 10.1999 13.0004 10.3826 13.0761C10.5653 13.1518 10.7215 13.28 10.8314 13.4444C10.9413 13.6089 10.9999 13.8022 10.9999 14C10.9999 14.2652 10.8946 14.5196 10.707 14.7071C10.5195 14.8946 10.2651 15 9.99991 15Z" fill="#00DCB0"/>
</svg>
