<svg width="34" height="34" viewBox="0 0 34 34" fill="none" xmlns="http://www.w3.org/2000/svg">
<rect width="34" height="34" rx="4" fill="#00DCB0" fill-opacity="0.1"/>
<path d="M18.3 17.22C18.8336 16.7581 19.2616 16.1869 19.5549 15.545C19.8482 14.9032 20 14.2057 20 13.5C20 12.1739 19.4732 10.9021 18.5355 9.96447C17.5979 9.02678 16.3261 8.5 15 8.5C13.6739 8.5 12.4021 9.02678 11.4645 9.96447C10.5268 10.9021 10 12.1739 10 13.5C9.99999 14.2057 10.1518 14.9032 10.4451 15.545C10.7384 16.1869 11.1664 16.7581 11.7 17.22C10.3001 17.8539 9.11247 18.8775 8.27898 20.1685C7.4455 21.4596 7.00147 22.9633 7 24.5C7 24.7652 7.10536 25.0196 7.29289 25.2071C7.48043 25.3946 7.73478 25.5 8 25.5C8.26522 25.5 8.51957 25.3946 8.70711 25.2071C8.89464 25.0196 9 24.7652 9 24.5C9 22.9087 9.63214 21.3826 10.7574 20.2574C11.8826 19.1321 13.4087 18.5 15 18.5C16.5913 18.5 18.1174 19.1321 19.2426 20.2574C20.3679 21.3826 21 22.9087 21 24.5C21 24.7652 21.1054 25.0196 21.2929 25.2071C21.4804 25.3946 21.7348 25.5 22 25.5C22.2652 25.5 22.5196 25.3946 22.7071 25.2071C22.8946 25.0196 23 24.7652 23 24.5C22.9985 22.9633 22.5545 21.4596 21.721 20.1685C20.8875 18.8775 19.6999 17.8539 18.3 17.22ZM15 16.5C14.4067 16.5 13.8266 16.3241 13.3333 15.9944C12.8399 15.6648 12.4554 15.1962 12.2284 14.6481C12.0013 14.0999 11.9419 13.4967 12.0576 12.9147C12.1734 12.3328 12.4591 11.7982 12.8787 11.3787C13.2982 10.9591 13.8328 10.6734 14.4147 10.5576C14.9967 10.4419 15.5999 10.5013 16.1481 10.7284C16.6962 10.9554 17.1648 11.3399 17.4944 11.8333C17.8241 12.3266 18 12.9067 18 13.5C18 14.2956 17.6839 15.0587 17.1213 15.6213C16.5587 16.1839 15.7956 16.5 15 16.5ZM26.71 14.13C26.617 14.0363 26.5064 13.9619 26.3846 13.9111C26.2627 13.8603 26.132 13.8342 26 13.8342C25.868 13.8342 25.7373 13.8603 25.6154 13.9111C25.4936 13.9619 25.383 14.0363 25.29 14.13L23.29 16.13L22.67 15.5C22.577 15.4063 22.4664 15.3319 22.3446 15.2811C22.2227 15.2303 22.092 15.2042 21.96 15.2042C21.828 15.2042 21.6973 15.2303 21.5754 15.2811C21.4536 15.3319 21.343 15.4063 21.25 15.5C21.0637 15.6874 20.9592 15.9408 20.9592 16.205C20.9592 16.4692 21.0637 16.7226 21.25 16.91L22.59 18.25C22.7774 18.4363 23.0308 18.5408 23.295 18.5408C23.5592 18.5408 23.8126 18.4363 24 18.25L26.67 15.58C26.771 15.4893 26.8524 15.379 26.9094 15.2559C26.9664 15.1327 26.9977 14.9992 27.0014 14.8636C27.0052 14.7279 26.9813 14.5929 26.9312 14.4668C26.8811 14.3407 26.8058 14.2261 26.71 14.13Z" fill="#00DCB0"/>
</svg>
