<svg width="34" height="34" viewBox="0 0 34 34" fill="none" xmlns="http://www.w3.org/2000/svg">
<rect width="34" height="34" rx="4" fill="#00DCB0" fill-opacity="0.1"/>
<path d="M25.16 9.99998C24.1 8.93719 22.6948 8.28852 21.1984 8.17115C19.7019 8.05378 18.2128 8.47545 17 9.35998C15.7277 8.41362 14.144 7.98449 12.568 8.15902C10.9919 8.33355 9.54047 9.09876 8.506 10.3006C7.47154 11.5024 6.93085 13.0515 6.99283 14.636C7.05481 16.2205 7.71485 17.7227 8.84003 18.84L15.05 25.06C15.57 25.5718 16.2704 25.8586 17 25.8586C17.7296 25.8586 18.43 25.5718 18.95 25.06L25.16 18.84C26.3276 17.6652 26.983 16.0763 26.983 14.42C26.983 12.7637 26.3276 11.1747 25.16 9.99998ZM23.75 17.46L17.54 23.67C17.4694 23.7413 17.3853 23.798 17.2926 23.8366C17.1999 23.8753 17.1005 23.8952 17 23.8952C16.8996 23.8952 16.8002 23.8753 16.7075 23.8366C16.6148 23.798 16.5307 23.7413 16.46 23.67L10.25 17.43C9.46579 16.6283 9.02664 15.5514 9.02664 14.43C9.02664 13.3085 9.46579 12.2316 10.25 11.43C11.0492 10.641 12.127 10.1986 13.25 10.1986C14.3731 10.1986 15.4509 10.641 16.25 11.43C16.343 11.5237 16.4536 11.5981 16.5755 11.6489C16.6973 11.6996 16.828 11.7258 16.96 11.7258C17.092 11.7258 17.2227 11.6996 17.3446 11.6489C17.4665 11.5981 17.5771 11.5237 17.67 11.43C18.4692 10.641 19.547 10.1986 20.67 10.1986C21.7931 10.1986 22.8709 10.641 23.67 11.43C24.4651 12.2211 24.9186 13.2922 24.9336 14.4137C24.9485 15.5352 24.5237 16.6179 23.75 17.43V17.46Z" fill="#00DCB0"/>
</svg>
