<svg width="55" height="55" viewBox="0 0 55 55" fill="none" xmlns="http://www.w3.org/2000/svg">
<rect width="55" height="55" rx="5" fill="#00DCB0" fill-opacity="0.1"/>
<path d="M37 22.82C37.0048 22.7568 37.0048 22.6933 37 22.63L35 17.63C34.9219 17.4324 34.7828 17.2647 34.603 17.1515C34.4232 17.0382 34.212 16.9851 34 17H20C19.7997 16.9998 19.604 17.0598 19.4382 17.1721C19.2724 17.2844 19.1441 17.4439 19.07 17.63L17.07 22.63C17.0652 22.6933 17.0652 22.7568 17.07 22.82C17.0368 22.8757 17.0131 22.9365 17 23C17.0111 23.6913 17.2012 24.3678 17.5517 24.9637C17.9023 25.5596 18.4012 26.0544 19 26.4V36C19 36.2652 19.1054 36.5196 19.2929 36.7071C19.4804 36.8947 19.7348 37 20 37H34C34.2652 37 34.5196 36.8947 34.7071 36.7071C34.8946 36.5196 35 36.2652 35 36V26.44C35.6046 26.091 36.1072 25.5898 36.4581 24.9864C36.809 24.3829 36.9958 23.6981 37 23C37.0094 22.9404 37.0094 22.8796 37 22.82ZM28 35H26V31H28V35ZM33 35H30V30C30 29.7348 29.8946 29.4804 29.7071 29.2929C29.5196 29.1054 29.2652 29 29 29H25C24.7348 29 24.4804 29.1054 24.2929 29.2929C24.1054 29.4804 24 29.7348 24 30V35H21V27C21.5695 26.9968 22.1317 26.872 22.6491 26.634C23.1664 26.3961 23.627 26.0503 24 25.62C24.3754 26.0456 24.837 26.3865 25.3542 26.62C25.8715 26.8535 26.4325 26.9743 27 26.9743C27.5675 26.9743 28.1285 26.8535 28.6458 26.62C29.163 26.3865 29.6246 26.0456 30 25.62C30.373 26.0503 30.8336 26.3961 31.3509 26.634C31.8683 26.872 32.4305 26.9968 33 27V35ZM33 25C32.4696 25 31.9609 24.7893 31.5858 24.4142C31.2107 24.0392 31 23.5304 31 23C31 22.7348 30.8946 22.4804 30.7071 22.2929C30.5196 22.1054 30.2652 22 30 22C29.7348 22 29.4804 22.1054 29.2929 22.2929C29.1054 22.4804 29 22.7348 29 23C29 23.5304 28.7893 24.0392 28.4142 24.4142C28.0391 24.7893 27.5304 25 27 25C26.4696 25 25.9609 24.7893 25.5858 24.4142C25.2107 24.0392 25 23.5304 25 23C25 22.7348 24.8946 22.4804 24.7071 22.2929C24.5196 22.1054 24.2652 22 24 22C23.7348 22 23.4804 22.1054 23.2929 22.2929C23.1054 22.4804 23 22.7348 23 23C23.0098 23.2627 22.9679 23.5247 22.8765 23.7711C22.7851 24.0175 22.646 24.2435 22.4672 24.4362C22.2885 24.6289 22.0735 24.7845 21.8347 24.8941C21.5958 25.0037 21.3376 25.0652 21.075 25.075C20.5446 25.0949 20.028 24.9033 19.6388 24.5423C19.4461 24.3635 19.2906 24.1486 19.1809 23.9097C19.0713 23.6708 19.0098 23.4127 19 23.15L20.68 19H33.32L35 23.15C34.9621 23.654 34.7348 24.125 34.3637 24.4682C33.9927 24.8114 33.5054 25.0014 33 25Z" fill="#00DCB0"/>
</svg>
