<svg width="55" height="55" viewBox="0 0 55 55" fill="none" xmlns="http://www.w3.org/2000/svg">
<rect width="55" height="55" rx="5" fill="#00DCB0" fill-opacity="0.1"/>
<path d="M22 25H24C24.2652 25 24.5196 24.8946 24.7071 24.7071C24.8946 24.5196 25 24.2652 25 24C25 23.7348 24.8946 23.4804 24.7071 23.2929C24.5196 23.1054 24.2652 23 24 23H22C21.7348 23 21.4804 23.1054 21.2929 23.2929C21.1054 23.4804 21 23.7348 21 24C21 24.2652 21.1054 24.5196 21.2929 24.7071C21.4804 24.8946 21.7348 25 22 25ZM36 19H28V18C28 17.7348 27.8946 17.4804 27.7071 17.2929C27.5196 17.1054 27.2652 17 27 17C26.7348 17 26.4804 17.1054 26.2929 17.2929C26.1054 17.4804 26 17.7348 26 18V19H18C17.7348 19 17.4804 19.1054 17.2929 19.2929C17.1054 19.4804 17 19.7348 17 20V30C17 30.7956 17.3161 31.5587 17.8787 32.1213C18.4413 32.6839 19.2044 33 20 33H24.59L22.29 35.29C22.1963 35.383 22.1219 35.4936 22.0711 35.6154C22.0203 35.7373 21.9942 35.868 21.9942 36C21.9942 36.132 22.0203 36.2627 22.0711 36.3846C22.1219 36.5064 22.1963 36.617 22.29 36.71C22.383 36.8037 22.4936 36.8781 22.6154 36.9289C22.7373 36.9797 22.868 37.0058 23 37.0058C23.132 37.0058 23.2627 36.9797 23.3846 36.9289C23.5064 36.8781 23.617 36.8037 23.71 36.71L26 34.41V36C26 36.2652 26.1054 36.5196 26.2929 36.7071C26.4804 36.8946 26.7348 37 27 37C27.2652 37 27.5196 36.8946 27.7071 36.7071C27.8946 36.5196 28 36.2652 28 36V34.41L30.29 36.71C30.383 36.8037 30.4936 36.8781 30.6154 36.9289C30.7373 36.9797 30.868 37.0058 31 37.0058C31.132 37.0058 31.2627 36.9797 31.3846 36.9289C31.5064 36.8781 31.617 36.8037 31.71 36.71C31.8037 36.617 31.8781 36.5064 31.9289 36.3846C31.9797 36.2627 32.0058 36.132 32.0058 36C32.0058 35.868 31.9797 35.7373 31.9289 35.6154C31.8781 35.4936 31.8037 35.383 31.71 35.29L29.41 33H34C34.7956 33 35.5587 32.6839 36.1213 32.1213C36.6839 31.5587 37 30.7956 37 30V20C37 19.7348 36.8946 19.4804 36.7071 19.2929C36.5196 19.1054 36.2652 19 36 19ZM35 30C35 30.2652 34.8946 30.5196 34.7071 30.7071C34.5196 30.8946 34.2652 31 34 31H20C19.7348 31 19.4804 30.8946 19.2929 30.7071C19.1054 30.5196 19 30.2652 19 30V21H35V30ZM22 29H28C28.2652 29 28.5196 28.8946 28.7071 28.7071C28.8946 28.5196 29 28.2652 29 28C29 27.7348 28.8946 27.4804 28.7071 27.2929C28.5196 27.1054 28.2652 27 28 27H22C21.7348 27 21.4804 27.1054 21.2929 27.2929C21.1054 27.4804 21 27.7348 21 28C21 28.2652 21.1054 28.5196 21.2929 28.7071C21.4804 28.8946 21.7348 29 22 29Z" fill="#00DCB0"/>
</svg>
