<svg width="34" height="34" viewBox="0 0 34 34" fill="none" xmlns="http://www.w3.org/2000/svg">
<rect width="34" height="34" rx="4" fill="#00DCB0" fill-opacity="0.1"/>
<path d="M24 12H21V11C21 9.93913 20.5786 8.92172 19.8284 8.17157C19.0783 7.42143 18.0609 7 17 7C15.9391 7 14.9217 7.42143 14.1716 8.17157C13.4214 8.92172 13 9.93913 13 11V12H10C9.73478 12 9.48043 12.1054 9.29289 12.2929C9.10536 12.4804 9 12.7348 9 13V24C9 24.7956 9.31607 25.5587 9.87868 26.1213C10.4413 26.6839 11.2044 27 12 27H22C22.7956 27 23.5587 26.6839 24.1213 26.1213C24.6839 25.5587 25 24.7956 25 24V13C25 12.7348 24.8946 12.4804 24.7071 12.2929C24.5196 12.1054 24.2652 12 24 12ZM15 11C15 10.4696 15.2107 9.96086 15.5858 9.58579C15.9609 9.21071 16.4696 9 17 9C17.5304 9 18.0391 9.21071 18.4142 9.58579C18.7893 9.96086 19 10.4696 19 11V12H15V11ZM23 24C23 24.2652 22.8946 24.5196 22.7071 24.7071C22.5196 24.8946 22.2652 25 22 25H12C11.7348 25 11.4804 24.8946 11.2929 24.7071C11.1054 24.5196 11 24.2652 11 24V14H13V15C13 15.2652 13.1054 15.5196 13.2929 15.7071C13.4804 15.8946 13.7348 16 14 16C14.2652 16 14.5196 15.8946 14.7071 15.7071C14.8946 15.5196 15 15.2652 15 15V14H19V15C19 15.2652 19.1054 15.5196 19.2929 15.7071C19.4804 15.8946 19.7348 16 20 16C20.2652 16 20.5196 15.8946 20.7071 15.7071C20.8946 15.5196 21 15.2652 21 15V14H23V24Z" fill="#00DCB0"/>
</svg>
