<svg width="34" height="34" viewBox="0 0 34 34" fill="none" xmlns="http://www.w3.org/2000/svg">
<rect width="34" height="34" rx="4" fill="#00DCB0" fill-opacity="0.1"/>
<path d="M27 21H24.82C24.9364 20.6793 24.9973 20.3411 25 20V15C25 14.2044 24.6839 13.4413 24.1213 12.8787C23.5587 12.3161 22.7956 12 22 12H16C15.2044 12 14.4413 12.3161 13.8787 12.8787C13.3161 13.4413 13 14.2044 13 15V20C13.0027 20.3411 13.0636 20.6793 13.18 21H12C11.7348 21 11.4804 20.8946 11.2929 20.7071C11.1054 20.5196 11 20.2652 11 20V10C11 9.20435 10.6839 8.44129 10.1213 7.87868C9.55871 7.31607 8.79565 7 8 7H7C6.73478 7 6.48043 7.10536 6.29289 7.29289C6.10536 7.48043 6 7.73478 6 8C6 8.26522 6.10536 8.51957 6.29289 8.70711C6.48043 8.89464 6.73478 9 7 9H8C8.26522 9 8.51957 9.10536 8.70711 9.29289C8.89464 9.48043 9 9.73478 9 10V20C9.00369 20.6569 9.22288 21.2944 9.62392 21.8147C10.025 22.335 10.5857 22.7092 11.22 22.88C11.0358 23.3305 10.9641 23.8191 11.0109 24.3036C11.0577 24.7881 11.2217 25.2539 11.4887 25.6609C11.7557 26.0678 12.1177 26.4037 12.5435 26.6395C12.9693 26.8753 13.4461 27.004 13.9327 27.0144C14.4193 27.0249 14.9012 26.9167 15.3367 26.6994C15.7722 26.482 16.1482 26.1619 16.4324 25.7668C16.7167 25.3717 16.9004 24.9133 16.968 24.4313C17.0355 23.9492 16.9847 23.458 16.82 23H20.18C20.0155 23.4531 19.9627 23.9392 20.0259 24.4171C20.0892 24.895 20.2666 25.3506 20.5433 25.7454C20.82 26.1401 21.1877 26.4624 21.6154 26.6849C22.043 26.9074 22.5179 27.0235 23 27.0235C23.4821 27.0235 23.957 26.9074 24.3846 26.6849C24.8123 26.4624 25.18 26.1401 25.4567 25.7454C25.7334 25.3506 25.9108 24.895 25.9741 24.4171C26.0373 23.9392 25.9845 23.4531 25.82 23H27C27.2652 23 27.5196 22.8946 27.7071 22.7071C27.8946 22.5196 28 22.2652 28 22C28 21.7348 27.8946 21.4804 27.7071 21.2929C27.5196 21.1054 27.2652 21 27 21ZM14 25C13.8022 25 13.6089 24.9414 13.4444 24.8315C13.28 24.7216 13.1518 24.5654 13.0761 24.3827C13.0004 24.2 12.9806 23.9989 13.0192 23.8049C13.0578 23.6109 13.153 23.4327 13.2929 23.2929C13.4327 23.153 13.6109 23.0578 13.8049 23.0192C13.9989 22.9806 14.2 23.0004 14.3827 23.0761C14.5654 23.1518 14.7216 23.28 14.8315 23.4444C14.9414 23.6089 15 23.8022 15 24C15 24.2652 14.8946 24.5196 14.7071 24.7071C14.5196 24.8946 14.2652 25 14 25ZM16 21C15.7348 21 15.4804 20.8946 15.2929 20.7071C15.1054 20.5196 15 20.2652 15 20V15C15 14.7348 15.1054 14.4804 15.2929 14.2929C15.4804 14.1054 15.7348 14 16 14H22C22.2652 14 22.5196 14.1054 22.7071 14.2929C22.8946 14.4804 23 14.7348 23 15V20C23 20.2652 22.8946 20.5196 22.7071 20.7071C22.5196 20.8946 22.2652 21 22 21H16ZM23 25C22.8022 25 22.6089 24.9414 22.4444 24.8315C22.28 24.7216 22.1518 24.5654 22.0761 24.3827C22.0004 24.2 21.9806 23.9989 22.0192 23.8049C22.0578 23.6109 22.153 23.4327 22.2929 23.2929C22.4327 23.153 22.6109 23.0578 22.8049 23.0192C22.9989 22.9806 23.2 23.0004 23.3827 23.0761C23.5654 23.1518 23.7216 23.28 23.8315 23.4444C23.9414 23.6089 24 23.8022 24 24C24 24.2652 23.8946 24.5196 23.7071 24.7071C23.5196 24.8946 23.2652 25 23 25Z" fill="#00DCB0"/>
</svg>
