<svg width="55" height="55" viewBox="0 0 55 55" fill="none" xmlns="http://www.w3.org/2000/svg">
<rect width="55" height="55" rx="5" fill="#00DCB0" fill-opacity="0.1"/>
<path d="M23 26H25C25.2652 26 25.5196 25.8946 25.7071 25.7071C25.8946 25.5196 26 25.2652 26 25C26 24.7348 25.8946 24.4804 25.7071 24.2929C25.5196 24.1054 25.2652 24 25 24H23C22.7348 24 22.4804 24.1054 22.2929 24.2929C22.1054 24.4804 22 24.7348 22 25C22 25.2652 22.1054 25.5196 22.2929 25.7071C22.4804 25.8946 22.7348 26 23 26ZM37 20H29V19C29 18.7348 28.8946 18.4804 28.7071 18.2929C28.5196 18.1054 28.2652 18 28 18C27.7348 18 27.4804 18.1054 27.2929 18.2929C27.1054 18.4804 27 18.7348 27 19V20H19C18.7348 20 18.4804 20.1054 18.2929 20.2929C18.1054 20.4804 18 20.7348 18 21V31C18 31.7956 18.3161 32.5587 18.8787 33.1213C19.4413 33.6839 20.2044 34 21 34H25.59L23.29 36.29C23.1963 36.383 23.1219 36.4936 23.0711 36.6154C23.0203 36.7373 22.9942 36.868 22.9942 37C22.9942 37.132 23.0203 37.2627 23.0711 37.3846C23.1219 37.5064 23.1963 37.617 23.29 37.71C23.383 37.8037 23.4936 37.8781 23.6154 37.9289C23.7373 37.9797 23.868 38.0058 24 38.0058C24.132 38.0058 24.2627 37.9797 24.3846 37.9289C24.5064 37.8781 24.617 37.8037 24.71 37.71L27 35.41V37C27 37.2652 27.1054 37.5196 27.2929 37.7071C27.4804 37.8946 27.7348 38 28 38C28.2652 38 28.5196 37.8946 28.7071 37.7071C28.8946 37.5196 29 37.2652 29 37V35.41L31.29 37.71C31.383 37.8037 31.4936 37.8781 31.6154 37.9289C31.7373 37.9797 31.868 38.0058 32 38.0058C32.132 38.0058 32.2627 37.9797 32.3846 37.9289C32.5064 37.8781 32.617 37.8037 32.71 37.71C32.8037 37.617 32.8781 37.5064 32.9289 37.3846C32.9797 37.2627 33.0058 37.132 33.0058 37C33.0058 36.868 32.9797 36.7373 32.9289 36.6154C32.8781 36.4936 32.8037 36.383 32.71 36.29L30.41 34H35C35.7956 34 36.5587 33.6839 37.1213 33.1213C37.6839 32.5587 38 31.7956 38 31V21C38 20.7348 37.8946 20.4804 37.7071 20.2929C37.5196 20.1054 37.2652 20 37 20ZM36 31C36 31.2652 35.8946 31.5196 35.7071 31.7071C35.5196 31.8946 35.2652 32 35 32H21C20.7348 32 20.4804 31.8946 20.2929 31.7071C20.1054 31.5196 20 31.2652 20 31V22H36V31ZM23 30H29C29.2652 30 29.5196 29.8946 29.7071 29.7071C29.8946 29.5196 30 29.2652 30 29C30 28.7348 29.8946 28.4804 29.7071 28.2929C29.5196 28.1054 29.2652 28 29 28H23C22.7348 28 22.4804 28.1054 22.2929 28.2929C22.1054 28.4804 22 28.7348 22 29C22 29.2652 22.1054 29.5196 22.2929 29.7071C22.4804 29.8946 22.7348 30 23 30Z" fill="#00DCB0"/>
</svg>
