<svg width="34" height="34" viewBox="0 0 34 34" fill="none" xmlns="http://www.w3.org/2000/svg">
<rect width="34" height="34" rx="4" fill="#00DCB0" fill-opacity="0.1"/>
<path d="M26.3 15.08C26.019 14.7426 25.6674 14.4711 25.27 14.2845C24.8726 14.0978 24.439 14.0007 24 14H19.44L20 12.57C20.2329 11.9439 20.3105 11.2706 20.2261 10.6079C20.1416 9.94522 19.8977 9.31291 19.5152 8.76521C19.1327 8.21752 18.623 7.77078 18.0299 7.46333C17.4369 7.15587 16.778 6.99688 16.11 6.99998C15.9176 7.00038 15.7295 7.05626 15.5681 7.16091C15.4067 7.26555 15.2789 7.41453 15.2 7.58998L12.35 14H10C9.20435 14 8.44129 14.3161 7.87868 14.8787C7.31607 15.4413 7 16.2043 7 17V24C7 24.7956 7.31607 25.5587 7.87868 26.1213C8.44129 26.6839 9.20435 27 10 27H22.73C23.4318 26.9997 24.1113 26.7535 24.6503 26.304C25.1893 25.8545 25.5537 25.2303 25.68 24.54L26.95 17.54C27.0286 17.1074 27.011 16.6628 26.8987 16.2377C26.7864 15.8126 26.582 15.4173 26.3 15.08ZM12 25H10C9.73478 25 9.48043 24.8946 9.29289 24.7071C9.10536 24.5196 9 24.2652 9 24V17C9 16.7348 9.10536 16.4804 9.29289 16.2929C9.48043 16.1053 9.73478 16 10 16H12V25ZM25 17.18L23.73 24.18C23.6874 24.4129 23.5635 24.6232 23.3804 24.7734C23.1973 24.9235 22.9668 25.0038 22.73 25H14V15.21L16.72 9.08998C17 9.17161 17.26 9.31039 17.4837 9.49757C17.7073 9.68474 17.8897 9.91625 18.0194 10.1775C18.1491 10.4387 18.2232 10.724 18.2371 11.0153C18.2509 11.3066 18.2043 11.5976 18.1 11.87L17.57 13.3C17.4571 13.6022 17.4189 13.9273 17.4589 14.2475C17.4988 14.5677 17.6156 14.8735 17.7993 15.1387C17.983 15.404 18.2282 15.6208 18.5139 15.7708C18.7996 15.9208 19.1173 15.9994 19.44 16H24C24.1469 15.9997 24.2921 16.0319 24.4252 16.0941C24.5582 16.1563 24.676 16.2471 24.77 16.36C24.8663 16.4713 24.9369 16.6025 24.9767 16.7443C25.0164 16.886 25.0244 17.0348 25 17.18Z" fill="#00DCB0"/>
</svg>
