<svg width="34" height="34" viewBox="0 0 34 34" fill="none" xmlns="http://www.w3.org/2000/svg">
<rect width="34" height="34" rx="4" fill="#00DCB0" fill-opacity="0.1"/>
<path d="M26 19H25V8C25 7.73478 24.8946 7.48043 24.7071 7.29289C24.5196 7.10536 24.2652 7 24 7H10C9.73478 7 9.48043 7.10536 9.29289 7.29289C9.10536 7.48043 9 7.73478 9 8V19H8C7.73478 19 7.48043 19.1054 7.29289 19.2929C7.10536 19.4804 7 19.7348 7 20C7 20.2652 7.10536 20.5196 7.29289 20.7071C7.48043 20.8946 7.73478 21 8 21H16V22.15L11.45 25.15C11.2633 25.2655 11.1199 25.4393 11.0418 25.6445C10.9637 25.8496 10.9552 26.0748 11.0178 26.2852C11.0804 26.4957 11.2104 26.6797 11.3879 26.8089C11.5654 26.938 11.7805 27.0052 12 27C12.1966 27.0022 12.389 26.9428 12.55 26.83L16 24.55V26C16 26.2652 16.1054 26.5196 16.2929 26.7071C16.4804 26.8946 16.7348 27 17 27C17.2652 27 17.5196 26.8946 17.7071 26.7071C17.8946 26.5196 18 26.2652 18 26V24.55L21.45 26.83C21.611 26.9428 21.8034 27.0022 22 27C22.2136 26.9984 22.4212 26.9283 22.5921 26.8002C22.7631 26.672 22.8885 26.4925 22.95 26.2879C23.0115 26.0832 23.0058 25.8643 22.9338 25.6631C22.8619 25.462 22.7273 25.2892 22.55 25.17L18 22.17V21H26C26.2652 21 26.5196 20.8946 26.7071 20.7071C26.8946 20.5196 27 20.2652 27 20C27 19.7348 26.8946 19.4804 26.7071 19.2929C26.5196 19.1054 26.2652 19 26 19ZM23 19H11V9H23V19ZM14 17C14.1647 16.9991 14.3267 16.9576 14.4715 16.8791C14.6162 16.8006 14.7394 16.6876 14.83 16.55L16.16 14.55L17.29 15.69C17.3949 15.7956 17.5221 15.8764 17.6622 15.9266C17.8024 15.9767 17.9519 15.995 18.1 15.98C18.2474 15.9638 18.3894 15.9151 18.5157 15.8372C18.6419 15.7594 18.7493 15.6544 18.83 15.53L20.83 12.53C20.9478 12.3104 20.9793 12.0548 20.9185 11.8132C20.8577 11.5716 20.7089 11.3613 20.5012 11.2237C20.2935 11.0861 20.0419 11.0309 19.7956 11.0691C19.5494 11.1073 19.3263 11.236 19.17 11.43L17.84 13.43L16.71 12.29C16.6051 12.1844 16.4779 12.1036 16.3378 12.0534C16.1976 12.0033 16.0481 11.985 15.9 12C15.7526 12.0162 15.6106 12.0649 15.4843 12.1428C15.3581 12.2206 15.2507 12.3255 15.17 12.45L13.17 15.45C13.0253 15.6705 12.9735 15.9392 13.0259 16.1976C13.0784 16.4561 13.2308 16.6834 13.45 16.83C13.611 16.9428 13.8034 17.0022 14 17Z" fill="#00DCB0"/>
</svg>
