<svg width="34" height="34" viewBox="0 0 34 34" fill="none" xmlns="http://www.w3.org/2000/svg">
<rect width="34" height="34" rx="4" fill="#00DCB0" fill-opacity="0.1"/>
<path d="M11.992 19.502C11.7267 19.502 11.4724 19.6073 11.2848 19.7949C11.0973 19.9824 10.992 20.2368 10.992 20.502V22.284C9.70303 20.8264 8.99169 18.9477 8.99195 17.002C8.99152 16.7079 9.00888 16.414 9.04395 16.122C9.06303 15.9901 9.05555 15.8557 9.02194 15.7267C8.98834 15.5977 8.92929 15.4767 8.84826 15.3709C8.76724 15.2651 8.66588 15.1765 8.55014 15.1104C8.43439 15.0443 8.30661 15.002 8.17428 14.9861C8.04196 14.9701 7.90778 14.9807 7.77962 15.0173C7.65146 15.0539 7.53191 15.1157 7.428 15.1992C7.32409 15.2827 7.23791 15.3861 7.17454 15.5033C7.11116 15.6206 7.07186 15.7493 7.05895 15.882C7.01379 16.2536 6.99141 16.6276 6.99195 17.002C6.99332 19.3882 7.85097 21.6946 9.40895 23.502H7.99195C7.72674 23.502 7.47238 23.6073 7.28485 23.7949C7.09731 23.9824 6.99195 24.2368 6.99195 24.502C6.99195 24.7672 7.09731 25.0215 7.28485 25.2091C7.47238 25.3966 7.72674 25.502 7.99195 25.502H11.992C12.1483 25.4999 12.302 25.4606 12.4401 25.3872C12.5782 25.3138 12.6968 25.2085 12.786 25.08C12.797 25.065 12.812 25.053 12.823 25.037C12.83 25.027 12.83 25.015 12.836 25.005C12.8836 24.9246 12.9193 24.8376 12.942 24.747C12.957 24.696 12.9677 24.6438 12.974 24.591C12.977 24.561 12.992 24.534 12.992 24.502V20.502C12.992 20.2368 12.8866 19.9824 12.6991 19.7949C12.5115 19.6073 12.2572 19.502 11.992 19.502ZM13.492 11.002H11.709C13.1669 9.71298 15.0459 9.00165 16.992 9.00197C17.2861 9.00133 17.58 9.01903 17.872 9.05497C18.1354 9.0868 18.4008 9.01265 18.6096 8.84883C18.8184 8.68502 18.9536 8.44496 18.9855 8.18147C19.0173 7.91798 18.9431 7.65263 18.7793 7.44381C18.6155 7.23499 18.3754 7.0998 18.112 7.06797C17.7403 7.02327 17.3663 7.00123 16.992 7.00197C14.6058 7.00334 12.2993 7.86098 10.492 9.41897V8.00197C10.492 7.73675 10.3866 7.4824 10.1991 7.29486C10.0115 7.10733 9.75717 7.00197 9.49195 7.00197C9.22674 7.00197 8.97238 7.10733 8.78485 7.29486C8.59731 7.4824 8.49195 7.73675 8.49195 8.00197V12.002C8.49812 12.0682 8.5112 12.1335 8.53095 12.197C8.55506 12.3204 8.60295 12.4379 8.67195 12.543L8.68395 12.56C8.74991 12.6559 8.83256 12.7392 8.92795 12.806C8.93895 12.814 8.94495 12.826 8.95595 12.834C8.96995 12.844 8.98595 12.847 9.00095 12.855C9.05788 12.8891 9.1182 12.9173 9.18095 12.939C9.26516 12.9683 9.35296 12.9862 9.44195 12.992C9.45995 12.992 9.47395 13.002 9.49195 13.002H13.492C13.7572 13.002 14.0115 12.8966 14.1991 12.7091C14.3866 12.5215 14.492 12.2672 14.492 12.002C14.492 11.7368 14.3866 11.4824 14.1991 11.2949C14.0115 11.1073 13.7572 11.002 13.492 11.002ZM25.452 21.806C25.4278 21.6829 25.3799 21.5657 25.311 21.461L25.3 21.444C25.2337 21.3479 25.1507 21.2646 25.055 21.198C25.044 21.19 25.039 21.178 25.027 21.17C25.017 21.163 25.004 21.163 24.993 21.156C24.8661 21.0852 24.727 21.0391 24.583 21.02C24.551 21.017 24.524 21.002 24.492 21.002H20.492C20.2267 21.002 19.9724 21.1073 19.7848 21.2949C19.5973 21.4824 19.492 21.7368 19.492 22.002C19.492 22.2672 19.5973 22.5215 19.7848 22.7091C19.9724 22.8966 20.2267 23.002 20.492 23.002H22.274C20.8163 24.2908 18.9377 25.0021 16.992 25.002C16.6978 25.0023 16.4039 24.9843 16.112 24.948C15.8485 24.9161 15.5831 24.9903 15.3743 25.1541C15.1655 25.3179 15.0303 25.558 14.9985 25.8215C14.9666 26.085 15.0408 26.3503 15.2046 26.5591C15.3684 26.768 15.6085 26.9031 15.872 26.935C16.2436 26.9797 16.6176 27.002 16.992 27.002C19.3781 27.0006 21.6846 26.143 23.492 24.585V26.002C23.492 26.2672 23.5973 26.5215 23.7848 26.7091C23.9724 26.8966 24.2267 27.002 24.492 27.002C24.7572 27.002 25.0115 26.8966 25.1991 26.7091C25.3866 26.5215 25.492 26.2672 25.492 26.002V22.002C25.4855 21.9358 25.4721 21.8704 25.452 21.807V21.806ZM25.992 10.502C26.2572 10.502 26.5115 10.3966 26.6991 10.2091C26.8866 10.0215 26.992 9.76719 26.992 9.50197C26.992 9.23675 26.8866 8.9824 26.6991 8.79486C26.5115 8.60733 26.2572 8.50197 25.992 8.50197H21.992C21.9268 8.50833 21.8624 8.5214 21.8 8.54097L21.793 8.54197C21.6717 8.56649 21.5563 8.61401 21.453 8.68197L21.433 8.69497C21.3374 8.76104 21.2544 8.84368 21.188 8.93897C21.18 8.94897 21.168 8.95497 21.16 8.96597C21.153 8.97597 21.153 8.98897 21.146 8.99997C21.0747 9.1277 21.0285 9.26789 21.01 9.41297C21.007 9.44297 20.992 9.46997 20.992 9.50197V13.502C20.992 13.7672 21.0973 14.0215 21.2848 14.2091C21.4724 14.3966 21.7267 14.502 21.992 14.502C22.2572 14.502 22.5115 14.3966 22.6991 14.2091C22.8866 14.0215 22.992 13.7672 22.992 13.502V11.719C24.2809 13.177 24.9922 15.0559 24.992 17.002C24.9921 17.2961 24.9744 17.59 24.939 17.882C24.9073 18.1451 24.9814 18.4101 25.1448 18.6188C25.3083 18.8274 25.5479 18.9627 25.811 18.995C25.8514 18.9997 25.8922 19.0021 25.933 19.002C26.1771 19.0015 26.4126 18.9118 26.5952 18.7497C26.7777 18.5876 26.8947 18.3643 26.924 18.122C26.9694 17.7504 26.9922 17.3763 26.992 17.002C26.9906 14.6158 26.1329 12.3093 24.575 10.502H25.992Z" fill="#00DCB0"/>
</svg>
