<svg width="55" height="55" viewBox="0 0 55 55" fill="none" xmlns="http://www.w3.org/2000/svg">
<rect width="55" height="55" rx="5" fill="#E4E9F8"/>
<path d="M28 31H22C21.7348 31 21.4804 31.1054 21.2929 31.2929C21.1054 31.4804 21 31.7348 21 32C21 32.2652 21.1054 32.5196 21.2929 32.7071C21.4804 32.8947 21.7348 33 22 33H28C28.2652 33 28.5196 32.8947 28.7071 32.7071C28.8947 32.5196 29 32.2652 29 32C29 31.7348 28.8947 31.4804 28.7071 31.2929C28.5196 31.1054 28.2652 31 28 31ZM24 25H26C26.2652 25 26.5196 24.8946 26.7071 24.7071C26.8947 24.5196 27 24.2652 27 24C27 23.7348 26.8947 23.4804 26.7071 23.2929C26.5196 23.1054 26.2652 23 26 23H24C23.7348 23 23.4804 23.1054 23.2929 23.2929C23.1054 23.4804 23 23.7348 23 24C23 24.2652 23.1054 24.5196 23.2929 24.7071C23.4804 24.8946 23.7348 25 24 25ZM36 27H33V18C33.0007 17.8238 32.9548 17.6505 32.867 17.4978C32.7792 17.345 32.6526 17.2181 32.5 17.13C32.348 17.0422 32.1755 16.996 32 16.996C31.8245 16.996 31.652 17.0422 31.5 17.13L28.5 18.85L25.5 17.13C25.348 17.0422 25.1755 16.996 25 16.996C24.8245 16.996 24.652 17.0422 24.5 17.13L21.5 18.85L18.5 17.13C18.348 17.0422 18.1755 16.996 18 16.996C17.8245 16.996 17.652 17.0422 17.5 17.13C17.3474 17.2181 17.2208 17.345 17.133 17.4978C17.0452 17.6505 16.9993 17.8238 17 18V34C17 34.7957 17.3161 35.5587 17.8787 36.1213C18.4413 36.6839 19.2044 37 20 37H34C34.7957 37 35.5587 36.6839 36.1213 36.1213C36.6839 35.5587 37 34.7957 37 34V28C37 27.7348 36.8947 27.4804 36.7071 27.2929C36.5196 27.1054 36.2652 27 36 27ZM20 35C19.7348 35 19.4804 34.8947 19.2929 34.7071C19.1054 34.5196 19 34.2652 19 34V19.73L21 20.87C21.1543 20.9506 21.3259 20.9927 21.5 20.9927C21.6741 20.9927 21.8457 20.9506 22 20.87L25 19.15L28 20.87C28.1543 20.9506 28.3259 20.9927 28.5 20.9927C28.6741 20.9927 28.8457 20.9506 29 20.87L31 19.73V34C31.0027 34.3412 31.0636 34.6793 31.18 35H20ZM35 34C35 34.2652 34.8947 34.5196 34.7071 34.7071C34.5196 34.8947 34.2652 35 34 35C33.7348 35 33.4804 34.8947 33.2929 34.7071C33.1054 34.5196 33 34.2652 33 34V29H35V34ZM28 27H22C21.7348 27 21.4804 27.1054 21.2929 27.2929C21.1054 27.4804 21 27.7348 21 28C21 28.2652 21.1054 28.5196 21.2929 28.7071C21.4804 28.8947 21.7348 29 22 29H28C28.2652 29 28.5196 28.8947 28.7071 28.7071C28.8947 28.5196 29 28.2652 29 28C29 27.7348 28.8947 27.4804 28.7071 27.2929C28.5196 27.1054 28.2652 27 28 27Z" fill="#2F55D4"/>
</svg>
