<svg width="34" height="34" viewBox="0 0 34 34" fill="none" xmlns="http://www.w3.org/2000/svg">
<rect width="34" height="34" rx="4" fill="#00DCB0" fill-opacity="0.1"/>
<path d="M12 19H14C14.2652 19 14.5196 18.8946 14.7071 18.7071C14.8946 18.5196 15 18.2652 15 18C15 17.7348 14.8946 17.4804 14.7071 17.2929C14.5196 17.1054 14.2652 17 14 17H12C11.7348 17 11.4804 17.1054 11.2929 17.2929C11.1054 17.4804 11 17.7348 11 18C11 18.2652 11.1054 18.5196 11.2929 18.7071C11.4804 18.8946 11.7348 19 12 19ZM18 21H12C11.7348 21 11.4804 21.1054 11.2929 21.2929C11.1054 21.4804 11 21.7348 11 22C11 22.2652 11.1054 22.5196 11.2929 22.7071C11.4804 22.8946 11.7348 23 12 23H18C18.2652 23 18.5196 22.8946 18.7071 22.7071C18.8946 22.5196 19 22.2652 19 22C19 21.7348 18.8946 21.4804 18.7071 21.2929C18.5196 21.1054 18.2652 21 18 21ZM24 7H10C9.20435 7 8.44129 7.31607 7.87868 7.87868C7.31607 8.44129 7 9.20435 7 10V24C7 24.7956 7.31607 25.5587 7.87868 26.1213C8.44129 26.6839 9.20435 27 10 27H24C24.7956 27 25.5587 26.6839 26.1213 26.1213C26.6839 25.5587 27 24.7956 27 24V10C27 9.20435 26.6839 8.44129 26.1213 7.87868C25.5587 7.31607 24.7956 7 24 7ZM19 9V12.29L17.49 11.45C17.338 11.3622 17.1655 11.316 16.99 11.316C16.8145 11.316 16.642 11.3622 16.49 11.45L15 12.29V9H19ZM25 24C25 24.2652 24.8946 24.5196 24.7071 24.7071C24.5196 24.8946 24.2652 25 24 25H10C9.73478 25 9.48043 24.8946 9.29289 24.7071C9.10536 24.5196 9 24.2652 9 24V10C9 9.73478 9.10536 9.48043 9.29289 9.29289C9.48043 9.10536 9.73478 9 10 9H13V14C13.0011 14.1745 13.0478 14.3457 13.1355 14.4966C13.2232 14.6475 13.3489 14.7727 13.5 14.86C13.652 14.9478 13.8245 14.994 14 14.994C14.1755 14.994 14.348 14.9478 14.5 14.86L17 13.47L19.51 14.87C19.6595 14.9547 19.8282 14.9995 20 15C20.2652 15 20.5196 14.8946 20.7071 14.7071C20.8946 14.5196 21 14.2652 21 14V9H24C24.2652 9 24.5196 9.10536 24.7071 9.29289C24.8946 9.48043 25 9.73478 25 10V24Z" fill="#00DCB0"/>
</svg>
