<svg width="34" height="34" viewBox="0 0 34 34" fill="none" xmlns="http://www.w3.org/2000/svg">
<rect width="34" height="34" rx="4" fill="#00DCB0" fill-opacity="0.1"/>
<path d="M24.4099 18C24.1899 18 23.9599 17.93 23.7399 17.88C23.2948 17.7805 22.857 17.6501 22.4299 17.49C21.966 17.3212 21.4561 17.33 20.9982 17.5146C20.5404 17.6992 20.167 18.0466 19.9499 18.49L19.7299 18.95C18.7587 18.3992 17.8616 17.7271 17.0599 16.95C16.2828 16.1484 15.6107 15.2512 15.0599 14.28L15.5199 14.07C15.9633 13.8529 16.3107 13.4795 16.4953 13.0217C16.6799 12.5639 16.6887 12.0539 16.5199 11.59C16.3611 11.159 16.2308 10.7181 16.1299 10.27C16.0799 10.05 16.0399 9.82 16.0099 9.6C15.8885 8.89562 15.5196 8.25774 14.9695 7.80124C14.4195 7.34474 13.7246 7.09961 13.0099 7.11H9.99993C9.57717 7.10945 9.15908 7.19825 8.77305 7.37058C8.38701 7.54292 8.04176 7.7949 7.75993 8.11C7.47225 8.43365 7.25804 8.81575 7.13203 9.23004C7.00602 9.64432 6.97119 10.081 7.02993 10.51C7.57352 14.6721 9.47514 18.5387 12.4399 21.51C15.4113 24.4748 19.2778 26.3764 23.4399 26.92C23.5697 26.9299 23.7001 26.9299 23.8299 26.92C24.5673 26.9211 25.2793 26.6505 25.8299 26.16C26.145 25.8782 26.397 25.5329 26.5693 25.1469C26.7417 24.7609 26.8305 24.3428 26.8299 23.92V20.92C26.8245 20.229 26.5808 19.5611 26.1399 19.0291C25.6989 18.4971 25.0879 18.1336 24.4099 18ZM24.8999 24C24.8996 24.1395 24.8701 24.2775 24.8132 24.4049C24.7564 24.5324 24.6735 24.6465 24.5699 24.74C24.4603 24.8399 24.3299 24.9141 24.1881 24.9573C24.0463 25.0006 23.8966 25.0117 23.7499 24.99C20.0182 24.5026 16.5502 22.802 13.8799 20.15C11.2074 17.4775 9.49196 13.9974 8.99993 10.25C8.9782 10.1033 8.98936 9.95367 9.0326 9.81185C9.07584 9.67003 9.15007 9.5396 9.24993 9.43C9.34455 9.32515 9.46031 9.24154 9.58958 9.18466C9.71885 9.12778 9.8587 9.09892 9.99993 9.1H12.9999C13.2311 9.09435 13.4571 9.16898 13.6394 9.3112C13.8217 9.45341 13.9491 9.65442 13.9999 9.88C13.9999 10.15 14.0899 10.43 14.1499 10.7C14.2655 11.2239 14.4192 11.7386 14.6099 12.24L13.2099 12.9C12.9693 13.0105 12.7823 13.2119 12.6899 13.46C12.5899 13.7035 12.5899 13.9765 12.6899 14.22C14.1291 17.3028 16.6072 19.7808 19.6899 21.22C19.9334 21.32 20.2065 21.32 20.4499 21.22C20.6981 21.1276 20.8995 20.9406 21.0099 20.7L21.6399 19.3C22.1558 19.4881 22.6837 19.6418 23.2199 19.76C23.4799 19.82 23.7599 19.87 24.0299 19.91C24.2555 19.9608 24.4565 20.0882 24.5987 20.2705C24.7409 20.4529 24.8156 20.6788 24.8099 20.91L24.8999 24ZM18.9999 7H18.2999C18.0347 7.02254 17.7893 7.14952 17.6177 7.353C17.4461 7.55647 17.3624 7.81978 17.3849 8.085C17.4075 8.35022 17.5344 8.59562 17.7379 8.76721C17.9414 8.93881 18.2047 9.02254 18.4699 9H18.9999C20.5912 9 22.1174 9.63214 23.2426 10.7574C24.3678 11.8826 24.9999 13.4087 24.9999 15V15.53C24.9778 15.7938 25.0611 16.0556 25.2317 16.2581C25.4023 16.4606 25.6462 16.5871 25.9099 16.61H25.9899C26.2403 16.611 26.4819 16.5181 26.667 16.3496C26.8522 16.1811 26.9674 15.9493 26.9899 15.7V15C26.9899 12.88 26.1484 10.8467 24.6503 9.34668C23.1522 7.84667 21.1199 7.00265 18.9999 7ZM20.9999 15C20.9999 15.2652 21.1053 15.5196 21.2928 15.7071C21.4804 15.8946 21.7347 16 21.9999 16C22.2651 16 22.5195 15.8946 22.707 15.7071C22.8946 15.5196 22.9999 15.2652 22.9999 15C22.9999 13.9391 22.5785 12.9217 21.8284 12.1716C21.0782 11.4214 20.0608 11 18.9999 11C18.7347 11 18.4804 11.1054 18.2928 11.2929C18.1053 11.4804 17.9999 11.7348 17.9999 12C17.9999 12.2652 18.1053 12.5196 18.2928 12.7071C18.4804 12.8946 18.7347 13 18.9999 13C19.5304 13 20.0391 13.2107 20.4141 13.5858C20.7892 13.9609 20.9999 14.4696 20.9999 15Z" fill="#00DCB0"/>
</svg>
