<svg width="34" height="34" viewBox="0 0 34 34" fill="none" xmlns="http://www.w3.org/2000/svg">
<rect width="34" height="34" rx="4" fill="#00DCB0" fill-opacity="0.1"/>
<path d="M13.5 24C13.2033 24 12.9133 24.088 12.6666 24.2528C12.42 24.4176 12.2277 24.6519 12.1142 24.926C12.0006 25.2001 11.9709 25.5017 12.0288 25.7926C12.0867 26.0836 12.2296 26.3509 12.4393 26.5607C12.6491 26.7704 12.9164 26.9133 13.2074 26.9712C13.4983 27.0291 13.7999 26.9993 14.074 26.8858C14.3481 26.7723 14.5824 26.58 14.7472 26.3334C14.912 26.0867 15 25.7967 15 25.5C15 25.1022 14.842 24.7206 14.5607 24.4393C14.2794 24.158 13.8978 24 13.5 24ZM24 21H12C11.7348 21 11.4804 20.8946 11.2929 20.7071C11.1054 20.5196 11 20.2652 11 20C11 19.7348 11.1054 19.4804 11.2929 19.2929C11.4804 19.1054 11.7348 19 12 19H20.491C21.1425 18.998 21.7758 18.7848 22.2959 18.3925C22.8161 18.0002 23.195 17.4499 23.376 16.824L24.961 11.274C25.0034 11.1253 25.0107 10.9687 24.9823 10.8167C24.954 10.6647 24.8907 10.5213 24.7976 10.3978C24.7045 10.2743 24.584 10.1741 24.4456 10.1051C24.3072 10.0361 24.1547 10.0001 24 10H11.74C11.5328 9.41702 11.1508 8.91213 10.6462 8.55421C10.1415 8.19629 9.5387 8.00275 8.92 8H8C7.73478 8 7.48043 8.10536 7.29289 8.29289C7.10536 8.48043 7 8.73478 7 9C7 9.26522 7.10536 9.51957 7.29289 9.70711C7.48043 9.89464 7.73478 10 8 10H8.921C9.13815 10.0007 9.34924 10.0717 9.52266 10.2024C9.69608 10.3331 9.8225 10.5164 9.883 10.725L10.038 11.27V11.275L11.679 17.017C10.9152 17.0987 10.2118 17.4702 9.71375 18.0551C9.21574 18.64 8.96107 19.3936 9.00222 20.1607C9.04338 20.9278 9.37722 21.6499 9.93496 22.1781C10.4927 22.7064 11.2318 23.0005 12 23H24C24.2652 23 24.5196 22.8946 24.7071 22.7071C24.8946 22.5196 25 22.2652 25 22C25 21.7348 24.8946 21.4804 24.7071 21.2929C24.5196 21.1054 24.2652 21 24 21ZM22.674 12L21.454 16.274C21.3936 16.4829 21.2671 16.6666 21.0935 16.7975C20.9199 16.9284 20.7085 16.9995 20.491 17H13.754L13.499 16.108L12.326 12H22.674ZM21.5 24C21.2033 24 20.9133 24.088 20.6666 24.2528C20.42 24.4176 20.2277 24.6519 20.1142 24.926C20.0006 25.2001 19.9709 25.5017 20.0288 25.7926C20.0867 26.0836 20.2296 26.3509 20.4393 26.5607C20.6491 26.7704 20.9164 26.9133 21.2074 26.9712C21.4983 27.0291 21.7999 26.9993 22.074 26.8858C22.3481 26.7723 22.5824 26.58 22.7472 26.3334C22.912 26.0867 23 25.7967 23 25.5C23 25.1022 22.842 24.7206 22.5607 24.4393C22.2794 24.158 21.8978 24 21.5 24Z" fill="#00DCB0"/>
</svg>
