<svg width="55" height="55" viewBox="0 0 55 55" fill="none" xmlns="http://www.w3.org/2000/svg">
<rect width="55" height="55" rx="5" fill="#E4E9F8"/>
<path d="M18.5 23.86L27.5 29.06C27.6521 29.1478 27.8245 29.194 28 29.194C28.1756 29.194 28.348 29.1478 28.5 29.06L37.5 23.86C37.6512 23.7727 37.7768 23.6475 37.8646 23.4966C37.9523 23.3457 37.999 23.1745 38 23C38.0007 22.8238 37.9549 22.6505 37.8671 22.4978C37.7792 22.345 37.6526 22.2181 37.5 22.13L28.5 16.94C28.348 16.8522 28.1756 16.806 28 16.806C27.8245 16.806 27.6521 16.8522 27.5 16.94L18.5 22.13C18.3474 22.2181 18.2208 22.345 18.133 22.4978C18.0452 22.6505 17.9993 22.8238 18 23C18.0011 23.1745 18.0478 23.3457 18.1355 23.4966C18.2232 23.6475 18.3489 23.7727 18.5 23.86ZM28 19L35 23L28 27L21 23L28 19ZM36.5 26.17L28 31L19.5 26.13C19.3859 26.0639 19.2598 26.021 19.129 26.0038C18.9983 25.9866 18.8654 25.9955 18.738 26.0299C18.6107 26.0643 18.4914 26.1235 18.3871 26.2042C18.2827 26.2849 18.1954 26.3854 18.13 26.5C17.9997 26.7296 17.9654 27.0015 18.0347 27.2563C18.104 27.5111 18.2713 27.7281 18.5 27.86L27.5 33.06C27.6521 33.1478 27.8245 33.194 28 33.194C28.1756 33.194 28.348 33.1478 28.5 33.06L37.5 27.86C37.7288 27.7281 37.896 27.5111 37.9654 27.2563C38.0347 27.0015 38.0004 26.7296 37.87 26.5C37.8047 26.3854 37.7173 26.2849 37.613 26.2042C37.5087 26.1235 37.3894 26.0643 37.262 26.0299C37.1347 25.9955 37.0018 25.9866 36.871 26.0038C36.7402 26.021 36.6142 26.0639 36.5 26.13V26.17ZM36.5 30.17L28 35L19.5 30.13C19.3859 30.0639 19.2598 30.021 19.129 30.0038C18.9983 29.9866 18.8654 29.9955 18.738 30.0299C18.6107 30.0643 18.4914 30.1235 18.3871 30.2042C18.2827 30.2849 18.1954 30.3854 18.13 30.5C17.9997 30.7296 17.9654 31.0015 18.0347 31.2563C18.104 31.5111 18.2713 31.7281 18.5 31.86L27.5 37.06C27.6521 37.1478 27.8245 37.194 28 37.194C28.1756 37.194 28.348 37.1478 28.5 37.06L37.5 31.86C37.7288 31.7281 37.896 31.5111 37.9654 31.2563C38.0347 31.0015 38.0004 30.7296 37.87 30.5C37.8047 30.3854 37.7173 30.2849 37.613 30.2042C37.5087 30.1235 37.3894 30.0643 37.262 30.0299C37.1347 29.9955 37.0018 29.9866 36.871 30.0038C36.7402 30.021 36.6142 30.0639 36.5 30.13V30.17Z" fill="#2F55D4"/>
</svg>
